<svg xmlns="http://www.w3.org/2000/svg" xmlns:xlink="http://www.w3.org/1999/xlink" width="500" zoomAndPan="magnify" viewBox="0 0 375 374.999991" height="500" preserveAspectRatio="xMidYMid meet" version="1.0"><defs><clipPath id="5dac8c0809"><path d="M 315 101 L 346.3125 101 L 346.3125 266 L 315 266 Z M 315 101 " clip-rule="nonzero"/></clipPath><clipPath id="6840faa9c6"><path d="M 29.0625 227 L 198 227 L 198 312 L 29.0625 312 Z M 29.0625 227 " clip-rule="nonzero"/></clipPath></defs><path fill="#243773" d="M 76.4375 85.988281 C 76.054688 85.988281 75.667969 85.84375 75.363281 85.558594 C 74.742188 84.964844 74.722656 83.980469 75.3125 83.359375 C 79.980469 78.476562 85.011719 73.847656 90.265625 69.605469 C 90.933594 69.066406 91.914062 69.167969 92.453125 69.835938 C 92.992188 70.503906 92.890625 71.480469 92.222656 72.019531 C 87.070312 76.179688 82.140625 80.71875 77.5625 85.507812 C 77.257812 85.824219 76.847656 85.988281 76.4375 85.988281 Z M 107.679688 60.757812 C 107.15625 60.757812 106.644531 60.496094 106.351562 60.019531 C 105.902344 59.289062 106.132812 58.332031 106.863281 57.882812 C 112.628906 54.34375 118.675781 51.152344 124.835938 48.394531 C 125.621094 48.042969 126.542969 48.394531 126.894531 49.175781 C 127.246094 49.960938 126.894531 50.878906 126.109375 51.230469 C 120.070312 53.933594 114.140625 57.0625 108.492188 60.527344 C 108.238281 60.683594 107.957031 60.757812 107.679688 60.757812 Z M 107.679688 60.757812 " fill-opacity="1" fill-rule="nonzero"/><path fill="#243773" d="M 189.058594 348.820312 C 182.804688 348.820312 176.507812 348.453125 170.339844 347.71875 C 169.488281 347.621094 168.878906 346.847656 168.980469 345.996094 C 169.082031 345.140625 169.855469 344.53125 170.707031 344.636719 C 176.910156 345.371094 183.246094 345.734375 189.53125 345.714844 C 189.53125 345.714844 189.53125 345.714844 189.535156 345.714844 C 190.390625 345.714844 191.085938 346.40625 191.089844 347.261719 C 191.09375 348.121094 190.398438 348.816406 189.539062 348.820312 C 189.378906 348.820312 189.21875 348.820312 189.058594 348.820312 Z M 208.535156 347.617188 C 207.761719 347.617188 207.09375 347.042969 206.992188 346.253906 C 206.886719 345.402344 207.492188 344.628906 208.34375 344.519531 C 214.570312 343.746094 220.804688 342.574219 226.871094 341.046875 C 227.703125 340.839844 228.550781 341.339844 228.761719 342.171875 C 228.96875 343.003906 228.464844 343.851562 227.632812 344.058594 C 221.441406 345.621094 215.082031 346.8125 208.730469 347.605469 C 208.664062 347.613281 208.601562 347.617188 208.535156 347.617188 Z M 151.789062 344.335938 C 151.667969 344.335938 151.542969 344.324219 151.417969 344.292969 C 145.207031 342.769531 139.03125 340.84375 133.058594 338.566406 C 132.253906 338.261719 131.851562 337.363281 132.160156 336.5625 C 132.464844 335.761719 133.363281 335.359375 134.164062 335.664062 C 140.019531 337.894531 146.074219 339.78125 152.160156 341.273438 C 152.992188 341.480469 153.503906 342.320312 153.296875 343.15625 C 153.125 343.863281 152.488281 344.335938 151.789062 344.335938 Z M 116.269531 330.8125 C 116.023438 330.8125 115.773438 330.753906 115.542969 330.632812 C 109.898438 327.644531 104.378906 324.277344 99.132812 320.617188 C 98.429688 320.125 98.253906 319.15625 98.746094 318.453125 C 99.238281 317.75 100.207031 317.578125 100.914062 318.070312 C 106.054688 321.65625 111.46875 324.960938 117 327.886719 C 117.757812 328.289062 118.046875 329.230469 117.644531 329.988281 C 117.367188 330.515625 116.828125 330.8125 116.269531 330.8125 Z M 116.269531 330.8125 " fill-opacity="1" fill-rule="nonzero"/><g clip-path="url(#5dac8c0809)"><path fill="#243773" d="M 326.878906 265.691406 C 326.636719 265.691406 326.386719 265.636719 326.15625 265.511719 C 325.394531 265.113281 325.105469 264.175781 325.503906 263.414062 C 328.394531 257.9375 330.972656 252.230469 333.171875 246.449219 C 333.476562 245.648438 334.375 245.246094 335.179688 245.550781 C 335.980469 245.855469 336.386719 246.753906 336.078125 247.554688 C 333.835938 253.449219 331.203125 259.273438 328.257812 264.863281 C 327.980469 265.390625 327.4375 265.691406 326.878906 265.691406 Z M 340.230469 230.605469 C 340.105469 230.605469 339.980469 230.589844 339.855469 230.5625 C 339.023438 230.355469 338.511719 229.515625 338.71875 228.679688 C 340.195312 222.683594 341.320312 216.519531 342.0625 210.367188 C 342.164062 209.515625 342.9375 208.910156 343.792969 209.011719 C 344.644531 209.113281 345.253906 209.886719 345.152344 210.738281 C 344.394531 217.015625 343.246094 223.300781 341.738281 229.421875 C 341.5625 230.132812 340.929688 230.605469 340.230469 230.605469 Z M 344.730469 193.335938 C 343.871094 193.335938 343.175781 192.640625 343.175781 191.785156 C 343.175781 185.574219 342.800781 179.324219 342.0625 173.203125 C 341.960938 172.351562 342.570312 171.574219 343.421875 171.472656 C 344.273438 171.371094 345.050781 171.980469 345.152344 172.832031 C 345.902344 179.074219 346.285156 185.449219 346.285156 191.78125 C 346.285156 192.636719 345.589844 193.335938 344.730469 193.335938 Z M 340.230469 156.078125 C 339.53125 156.078125 338.894531 155.601562 338.722656 154.894531 C 337.242188 148.886719 335.378906 142.910156 333.179688 137.128906 C 332.871094 136.324219 333.277344 135.429688 334.078125 135.125 C 334.882812 134.820312 335.78125 135.222656 336.085938 136.023438 C 338.328125 141.921875 340.234375 148.023438 341.742188 154.152344 C 341.945312 154.984375 341.4375 155.828125 340.601562 156.03125 C 340.476562 156.0625 340.351562 156.078125 340.230469 156.078125 Z M 326.890625 120.996094 C 326.332031 120.996094 325.792969 120.691406 325.515625 120.164062 C 322.632812 114.695312 319.378906 109.339844 315.851562 104.25 C 315.363281 103.546875 315.539062 102.578125 316.242188 102.089844 C 316.949219 101.601562 317.917969 101.777344 318.40625 102.480469 C 322.007812 107.675781 325.324219 113.136719 328.265625 118.714844 C 328.667969 119.476562 328.375 120.414062 327.617188 120.816406 C 327.382812 120.9375 327.136719 120.996094 326.890625 120.996094 Z M 326.890625 120.996094 " fill-opacity="1" fill-rule="nonzero"/></g><path fill="#e6e9ff" d="M 303.355469 191.78125 C 303.355469 193.648438 303.308594 195.515625 303.214844 197.382812 C 303.125 199.25 302.988281 201.109375 302.804688 202.96875 C 302.621094 204.828125 302.390625 206.683594 302.117188 208.53125 C 301.84375 210.378906 301.523438 212.21875 301.15625 214.050781 C 300.792969 215.886719 300.382812 217.707031 299.929688 219.519531 C 299.472656 221.332031 298.976562 223.132812 298.433594 224.921875 C 297.890625 226.707031 297.304688 228.480469 296.671875 230.242188 C 296.042969 232 295.371094 233.742188 294.652344 235.46875 C 293.9375 237.195312 293.179688 238.902344 292.378906 240.589844 C 291.582031 242.28125 290.738281 243.949219 289.859375 245.597656 C 288.976562 247.242188 288.054688 248.867188 287.09375 250.472656 C 286.132812 252.074219 285.132812 253.652344 284.089844 255.207031 C 283.050781 256.757812 281.976562 258.285156 280.863281 259.785156 C 279.746094 261.289062 278.597656 262.757812 277.410156 264.203125 C 276.222656 265.648438 275 267.0625 273.746094 268.445312 C 272.488281 269.832031 271.199219 271.183594 269.878906 272.503906 C 268.554688 273.824219 267.199219 275.113281 265.8125 276.367188 C 264.429688 277.625 263.011719 278.84375 261.566406 280.027344 C 260.121094 281.214844 258.644531 282.363281 257.144531 283.476562 C 255.640625 284.589844 254.113281 285.664062 252.558594 286.703125 C 251.003906 287.742188 249.421875 288.738281 247.816406 289.699219 C 246.214844 290.660156 244.585938 291.582031 242.9375 292.460938 C 241.285156 293.34375 239.617188 294.183594 237.925781 294.980469 C 236.234375 295.78125 234.523438 296.535156 232.796875 297.253906 C 231.070312 297.96875 229.324219 298.640625 227.5625 299.269531 C 225.800781 299.898438 224.027344 300.484375 222.234375 301.027344 C 220.445312 301.570312 218.644531 302.066406 216.828125 302.519531 C 215.015625 302.976562 213.191406 303.382812 211.355469 303.75 C 209.519531 304.113281 207.679688 304.433594 205.828125 304.707031 C 203.976562 304.980469 202.121094 305.210938 200.261719 305.390625 C 198.398438 305.574219 196.535156 305.710938 194.664062 305.804688 C 192.796875 305.894531 190.929688 305.941406 189.058594 305.941406 C 187.1875 305.941406 185.316406 305.894531 183.449219 305.804688 C 181.582031 305.710938 179.714844 305.574219 177.855469 305.390625 C 175.992188 305.210938 174.136719 304.980469 172.285156 304.707031 C 170.4375 304.433594 168.59375 304.113281 166.757812 303.75 C 164.925781 303.382812 163.101562 302.976562 161.285156 302.519531 C 159.472656 302.066406 157.667969 301.570312 155.878906 301.027344 C 154.089844 300.484375 152.3125 299.898438 150.550781 299.269531 C 148.792969 298.640625 147.046875 297.96875 145.316406 297.253906 C 143.589844 296.535156 141.878906 295.78125 140.191406 294.980469 C 138.5 294.183594 136.828125 293.34375 135.179688 292.460938 C 133.527344 291.582031 131.902344 290.660156 130.296875 289.699219 C 128.691406 288.738281 127.113281 287.742188 125.558594 286.703125 C 124.003906 285.664062 122.472656 284.589844 120.972656 283.476562 C 119.46875 282.363281 117.996094 281.214844 116.546875 280.027344 C 115.101562 278.84375 113.6875 277.625 112.300781 276.367188 C 110.914062 275.113281 109.558594 273.824219 108.238281 272.503906 C 106.914062 271.183594 105.625 269.832031 104.371094 268.445312 C 103.113281 267.0625 101.890625 265.648438 100.707031 264.203125 C 99.519531 262.757812 98.367188 261.289062 97.253906 259.785156 C 96.140625 258.285156 95.0625 256.757812 94.023438 255.207031 C 92.984375 253.652344 91.984375 252.074219 91.023438 250.472656 C 90.0625 248.867188 89.140625 247.242188 88.257812 245.597656 C 87.375 243.949219 86.535156 242.28125 85.734375 240.589844 C 84.933594 238.902344 84.175781 237.195312 83.460938 235.46875 C 82.746094 233.742188 82.074219 232 81.441406 230.242188 C 80.8125 228.480469 80.226562 226.707031 79.683594 224.921875 C 79.140625 223.132812 78.640625 221.332031 78.1875 219.519531 C 77.730469 217.707031 77.320312 215.886719 76.957031 214.050781 C 76.59375 212.21875 76.273438 210.378906 76 208.53125 C 75.722656 206.683594 75.496094 204.828125 75.3125 202.96875 C 75.128906 201.109375 74.992188 199.25 74.898438 197.382812 C 74.808594 195.515625 74.761719 193.648438 74.761719 191.78125 C 74.761719 189.914062 74.808594 188.046875 74.898438 186.179688 C 74.992188 184.3125 75.128906 182.449219 75.3125 180.589844 C 75.496094 178.730469 75.722656 176.878906 76 175.03125 C 76.273438 173.179688 76.59375 171.339844 76.957031 169.507812 C 77.320312 167.675781 77.730469 165.855469 78.1875 164.042969 C 78.640625 162.230469 79.140625 160.429688 79.683594 158.640625 C 80.226562 156.851562 80.8125 155.078125 81.441406 153.320312 C 82.074219 151.5625 82.746094 149.820312 83.460938 148.09375 C 84.175781 146.367188 84.933594 144.660156 85.734375 142.96875 C 86.535156 141.28125 87.375 139.613281 88.257812 137.964844 C 89.140625 136.316406 90.0625 134.691406 91.023438 133.089844 C 91.984375 131.488281 92.984375 129.910156 94.023438 128.355469 C 95.0625 126.800781 96.140625 125.277344 97.253906 123.773438 C 98.367188 122.273438 99.519531 120.800781 100.707031 119.359375 C 101.890625 117.914062 103.113281 116.5 104.371094 115.113281 C 105.625 113.730469 106.914062 112.378906 108.238281 111.054688 C 109.558594 109.734375 110.914062 108.449219 112.300781 107.191406 C 113.6875 105.9375 115.101562 104.71875 116.546875 103.53125 C 117.996094 102.347656 119.46875 101.199219 120.972656 100.085938 C 122.472656 98.972656 124.003906 97.898438 125.558594 96.859375 C 127.113281 95.820312 128.691406 94.820312 130.296875 93.859375 C 131.902344 92.902344 133.527344 91.980469 135.179688 91.097656 C 136.828125 90.21875 138.5 89.378906 140.191406 88.578125 C 141.878906 87.78125 143.589844 87.023438 145.316406 86.308594 C 147.046875 85.59375 148.792969 84.921875 150.550781 84.292969 C 152.3125 83.664062 154.089844 83.078125 155.878906 82.535156 C 157.667969 81.992188 159.472656 81.496094 161.285156 81.039062 C 163.101562 80.585938 164.925781 80.175781 166.757812 79.8125 C 168.59375 79.449219 170.4375 79.128906 172.285156 78.855469 C 174.136719 78.582031 175.992188 78.351562 177.855469 78.167969 C 179.714844 77.984375 181.582031 77.847656 183.449219 77.757812 C 185.316406 77.664062 187.1875 77.621094 189.058594 77.621094 C 190.929688 77.621094 192.796875 77.664062 194.664062 77.757812 C 196.535156 77.847656 198.398438 77.984375 200.261719 78.167969 C 202.121094 78.351562 203.976562 78.582031 205.828125 78.855469 C 207.679688 79.128906 209.519531 79.449219 211.355469 79.8125 C 213.191406 80.175781 215.015625 80.585938 216.828125 81.039062 C 218.644531 81.496094 220.445312 81.992188 222.234375 82.535156 C 224.027344 83.078125 225.800781 83.664062 227.5625 84.292969 C 229.324219 84.921875 231.070312 85.59375 232.796875 86.308594 C 234.523438 87.023438 236.234375 87.78125 237.925781 88.578125 C 239.617188 89.378906 241.285156 90.21875 242.9375 91.097656 C 244.585938 91.980469 246.214844 92.902344 247.816406 93.859375 C 249.421875 94.820312 251.003906 95.820312 252.558594 96.859375 C 254.113281 97.898438 255.640625 98.972656 257.144531 100.085938 C 258.644531 101.199219 260.121094 102.347656 261.566406 103.53125 C 263.011719 104.71875 264.429688 105.9375 265.816406 107.191406 C 267.199219 108.449219 268.554688 109.734375 269.878906 111.054688 C 271.199219 112.378906 272.488281 113.730469 273.746094 115.113281 C 275.003906 116.5 276.222656 117.914062 277.410156 119.359375 C 278.597656 120.800781 279.746094 122.273438 280.863281 123.773438 C 281.976562 125.277344 283.050781 126.800781 284.089844 128.355469 C 285.132812 129.910156 286.132812 131.488281 287.09375 133.089844 C 288.054688 134.691406 288.976562 136.316406 289.859375 137.964844 C 290.738281 139.613281 291.582031 141.28125 292.378906 142.96875 C 293.179688 144.660156 293.9375 146.367188 294.652344 148.09375 C 295.371094 149.820312 296.042969 151.5625 296.671875 153.320312 C 297.304688 155.078125 297.890625 156.851562 298.433594 158.640625 C 298.976562 160.429688 299.472656 162.230469 299.929688 164.042969 C 300.382812 165.855469 300.792969 167.675781 301.15625 169.507812 C 301.523438 171.339844 301.84375 173.179688 302.117188 175.03125 C 302.390625 176.878906 302.621094 178.730469 302.804688 180.589844 C 302.988281 182.449219 303.125 184.3125 303.214844 186.179688 C 303.308594 188.046875 303.355469 189.914062 303.355469 191.78125 Z M 303.355469 191.78125 " fill-opacity="1" fill-rule="nonzero"/><path fill="#ffffff" d="M 30.800781 274.902344 L 54.757812 250.972656 C 59.304688 246.433594 65.472656 243.882812 71.902344 243.882812 L 90.125 243.882812 C 95.308594 243.882812 100.28125 245.9375 103.945312 249.597656 C 107.070312 252.722656 111.308594 254.476562 115.730469 254.476562 L 135.339844 254.476562 C 139.238281 254.476562 142.605469 256.734375 144.203125 260.015625 L 144.4375 260.542969 L 179.027344 231.628906 C 183.027344 228.285156 188.921875 228.546875 192.609375 232.230469 C 196.542969 236.160156 196.542969 242.527344 192.609375 246.453125 L 142.050781 296.953125 C 139.207031 299.792969 135.355469 301.386719 131.335938 301.386719 L 79.261719 301.386719 C 76.851562 301.386719 74.539062 302.34375 72.832031 304.046875 L 67.164062 309.707031 Z M 30.800781 274.902344 " fill-opacity="1" fill-rule="nonzero"/><g clip-path="url(#6840faa9c6)"><path fill="#243773" d="M 67.164062 311.261719 C 66.765625 311.261719 66.367188 311.109375 66.0625 310.808594 C 65.453125 310.199219 65.453125 309.21875 66.0625 308.609375 L 71.734375 302.945312 C 73.742188 300.9375 76.417969 299.832031 79.261719 299.832031 L 131.335938 299.832031 C 134.96875 299.832031 138.382812 298.421875 140.949219 295.855469 L 191.507812 245.355469 C 193.117188 243.75 194.003906 241.613281 194.003906 239.34375 C 194.003906 237.070312 193.117188 234.933594 191.507812 233.328125 C 188.367188 230.191406 183.433594 229.972656 180.027344 232.820312 L 145.4375 261.734375 C 145.0625 262.046875 144.5625 262.164062 144.089844 262.054688 C 143.613281 261.945312 143.21875 261.621094 143.019531 261.179688 L 142.792969 260.675781 C 141.386719 257.808594 138.535156 256.027344 135.339844 256.027344 L 115.730469 256.027344 C 110.863281 256.027344 106.285156 254.136719 102.84375 250.699219 C 99.449219 247.304688 94.929688 245.4375 90.125 245.4375 L 71.902344 245.4375 C 65.839844 245.4375 60.144531 247.792969 55.859375 252.070312 L 31.902344 276.003906 C 31.292969 276.609375 30.308594 276.609375 29.703125 276.003906 C 29.09375 275.394531 29.09375 274.410156 29.703125 273.804688 L 53.660156 249.875 C 56.066406 247.46875 58.882812 245.589844 62.027344 244.289062 C 65.175781 242.988281 68.496094 242.328125 71.902344 242.328125 L 90.125 242.328125 C 95.761719 242.328125 101.058594 244.519531 105.042969 248.5 C 107.898438 251.351562 111.691406 252.921875 115.730469 252.921875 L 135.339844 252.921875 C 137.519531 252.921875 139.640625 253.539062 141.46875 254.707031 C 142.855469 255.589844 144.027344 256.753906 144.914062 258.121094 L 178.027344 230.4375 C 180.261719 228.570312 183.09375 227.617188 186.003906 227.742188 C 188.914062 227.871094 191.648438 229.074219 193.710938 231.132812 C 195.90625 233.324219 197.113281 236.242188 197.113281 239.34375 C 197.113281 242.445312 195.90625 245.359375 193.710938 247.550781 L 143.148438 298.050781 C 139.996094 301.203125 135.800781 302.941406 131.335938 302.941406 L 79.261719 302.941406 C 77.246094 302.941406 75.355469 303.722656 73.933594 305.144531 L 68.261719 310.808594 C 67.957031 311.109375 67.558594 311.261719 67.164062 311.261719 Z M 67.164062 311.261719 " fill-opacity="1" fill-rule="nonzero"/></g><path fill="#243773" d="M 135.339844 275.699219 L 93.675781 275.699219 C 92.816406 275.699219 92.121094 275.003906 92.121094 274.148438 C 92.121094 273.289062 92.816406 272.59375 93.675781 272.59375 L 135.339844 272.59375 C 139.910156 272.59375 143.632812 268.878906 143.632812 264.3125 C 143.632812 263.480469 143.507812 262.660156 143.265625 261.871094 C 143.015625 261.050781 143.476562 260.183594 144.296875 259.929688 C 145.117188 259.679688 145.988281 260.140625 146.242188 260.957031 C 146.574219 262.042969 146.742188 263.167969 146.742188 264.3125 C 146.742188 270.589844 141.628906 275.699219 135.339844 275.699219 Z M 135.339844 275.699219 " fill-opacity="1" fill-rule="nonzero"/><path fill="#bafffe" d="M 72.558594 224.417969 C 72.140625 226.027344 73.625 227.539062 75.621094 227.539062 L 147.957031 227.539062 C 149.933594 227.539062 151.433594 226.027344 151.003906 224.417969 L 148.707031 213.789062 L 150.507812 200.066406 C 152.773438 183.160156 152.808594 166.109375 150.574219 149.21875 L 148.707031 135.113281 L 151.003906 124.46875 C 151.433594 122.875 149.933594 121.347656 147.941406 121.347656 L 75.621094 121.347656 C 73.625 121.347656 72.140625 122.875 72.558594 124.46875 L 74.871094 135.113281 L 74.855469 135.113281 L 73.019531 148.867188 C 70.769531 165.773438 70.769531 182.808594 73.019531 199.714844 L 74.871094 213.789062 Z M 72.558594 224.417969 " fill-opacity="1" fill-rule="nonzero"/><path fill="#243773" d="M 147.957031 229.09375 L 75.621094 229.09375 C 74.070312 229.09375 72.621094 228.421875 71.75 227.300781 C 71.023438 226.359375 70.765625 225.179688 71.042969 224.0625 L 73.292969 213.722656 L 71.476562 199.917969 C 69.214844 182.914062 69.214844 165.667969 71.476562 148.660156 L 73.28125 135.132812 L 71.042969 124.824219 C 70.765625 123.710938 71.019531 122.535156 71.75 121.59375 C 72.621094 120.464844 74.070312 119.792969 75.621094 119.792969 L 147.941406 119.792969 C 149.503906 119.792969 150.957031 120.472656 151.832031 121.613281 C 152.554688 122.554688 152.800781 123.722656 152.515625 124.832031 L 150.285156 135.179688 L 152.113281 149.011719 C 154.359375 165.972656 154.335938 183.21875 152.050781 200.273438 L 150.285156 213.722656 L 152.515625 224.054688 C 152.800781 225.171875 152.550781 226.34375 151.828125 227.285156 C 150.957031 228.417969 149.511719 229.09375 147.957031 229.09375 Z M 76.367188 135.535156 L 74.5625 149.070312 C 72.335938 165.804688 72.335938 182.777344 74.5625 199.511719 L 76.410156 213.585938 C 76.433594 213.761719 76.425781 213.941406 76.390625 214.117188 L 74.078125 224.746094 C 74.074219 224.765625 74.066406 224.785156 74.0625 224.804688 C 74.042969 224.878906 73.984375 225.105469 74.210938 225.394531 C 74.429688 225.679688 74.917969 225.984375 75.621094 225.984375 L 147.957031 225.984375 C 148.65625 225.984375 149.140625 225.679688 149.363281 225.390625 C 149.578125 225.109375 149.519531 224.890625 149.5 224.816406 C 149.496094 224.792969 149.488281 224.769531 149.484375 224.746094 L 147.1875 214.117188 C 147.148438 213.941406 147.140625 213.761719 147.164062 213.585938 L 148.96875 199.863281 C 151.214844 183.078125 151.238281 166.109375 149.03125 149.421875 L 147.164062 135.316406 C 147.140625 135.140625 147.148438 134.960938 147.1875 134.785156 L 149.484375 124.140625 C 149.488281 124.117188 149.496094 124.089844 149.503906 124.0625 C 149.519531 123.996094 149.578125 123.785156 149.363281 123.5 C 149.136719 123.210938 148.648438 122.898438 147.941406 122.898438 L 75.621094 122.898438 C 74.921875 122.898438 74.433594 123.207031 74.210938 123.496094 C 73.984375 123.785156 74.042969 124.003906 74.0625 124.078125 C 74.066406 124.097656 74.074219 124.121094 74.078125 124.140625 L 76.390625 134.785156 C 76.445312 135.035156 76.433594 135.292969 76.367188 135.535156 Z M 72.558594 224.417969 Z M 72.558594 224.417969 " fill-opacity="1" fill-rule="nonzero"/><path fill="#ffe98a" d="M 114.640625 153.289062 L 119.582031 163.289062 C 120.046875 164.226562 120.941406 164.878906 121.976562 165.03125 L 133.03125 166.632812 C 135.640625 167.011719 136.683594 170.21875 134.792969 172.058594 L 126.796875 179.84375 C 126.046875 180.574219 125.703125 181.625 125.882812 182.660156 L 127.769531 193.652344 C 128.214844 196.25 125.484375 198.230469 123.148438 197.003906 L 113.265625 191.816406 C 112.335938 191.328125 111.230469 191.328125 110.300781 191.816406 L 100.417969 197.003906 C 98.082031 198.230469 95.351562 196.25 95.796875 193.652344 L 97.6875 182.660156 C 97.863281 181.625 97.519531 180.574219 96.769531 179.84375 L 88.773438 172.058594 C 86.882812 170.21875 87.925781 167.011719 90.539062 166.632812 L 101.585938 165.03125 C 102.625 164.878906 103.519531 164.226562 103.988281 163.289062 L 108.929688 153.289062 C 110.097656 150.925781 113.46875 150.925781 114.640625 153.289062 Z M 114.640625 153.289062 " fill-opacity="1" fill-rule="nonzero"/><path fill="#243773" d="M 124.632812 198.929688 C 123.882812 198.929688 123.125 198.746094 122.425781 198.378906 L 112.542969 193.191406 C 112.066406 192.941406 111.5 192.941406 111.023438 193.191406 L 101.140625 198.378906 C 99.535156 199.222656 97.621094 199.085938 96.152344 198.019531 C 94.683594 196.953125 93.957031 195.179688 94.261719 193.390625 L 96.152344 182.398438 C 96.242188 181.871094 96.070312 181.332031 95.6875 180.957031 L 87.6875 173.171875 C 86.386719 171.902344 85.925781 170.042969 86.488281 168.316406 C 87.050781 166.59375 88.515625 165.359375 90.316406 165.097656 L 101.363281 163.492188 C 101.894531 163.414062 102.355469 163.082031 102.59375 162.601562 L 107.535156 152.601562 C 108.335938 150.972656 109.964844 149.960938 111.78125 149.960938 C 111.78125 149.960938 111.785156 149.960938 111.785156 149.960938 C 113.601562 149.960938 115.230469 150.972656 116.035156 152.601562 L 120.976562 162.601562 C 121.214844 163.082031 121.671875 163.414062 122.203125 163.492188 L 133.253906 165.097656 C 135.050781 165.359375 136.515625 166.589844 137.078125 168.316406 C 137.640625 170.042969 137.179688 171.902344 135.878906 173.171875 L 127.882812 180.957031 C 127.5 181.332031 127.324219 181.871094 127.414062 182.398438 L 129.304688 193.386719 C 129.609375 195.175781 128.886719 196.953125 127.417969 198.019531 C 126.585938 198.621094 125.613281 198.929688 124.632812 198.929688 Z M 111.785156 189.894531 C 112.542969 189.894531 113.296875 190.078125 113.988281 190.441406 L 123.871094 195.628906 C 124.433594 195.925781 125.074219 195.878906 125.589844 195.503906 C 126.101562 195.132812 126.34375 194.539062 126.238281 193.914062 L 124.347656 182.921875 C 124.085938 181.386719 124.59375 179.820312 125.714844 178.730469 L 133.707031 170.945312 C 134.160156 170.503906 134.316406 169.878906 134.121094 169.277344 C 133.921875 168.675781 133.433594 168.261719 132.804688 168.171875 L 121.753906 166.566406 C 120.210938 166.34375 118.878906 165.375 118.1875 163.976562 L 113.246094 153.976562 C 112.964844 153.40625 112.417969 153.070312 111.78125 153.070312 C 111.148438 153.070312 110.601562 153.40625 110.324219 153.976562 L 105.382812 163.976562 C 104.6875 165.375 103.351562 166.34375 101.8125 166.566406 L 90.761719 168.171875 C 90.132812 168.261719 89.644531 168.675781 89.449219 169.277344 C 89.25 169.878906 89.40625 170.503906 89.859375 170.945312 L 97.855469 178.730469 C 98.972656 179.816406 99.480469 181.382812 99.21875 182.921875 L 97.328125 193.914062 C 97.222656 194.539062 97.464844 195.132812 97.980469 195.503906 C 98.492188 195.878906 99.132812 195.925781 99.695312 195.628906 L 109.578125 190.441406 C 110.269531 190.078125 111.027344 189.894531 111.785156 189.894531 Z M 111.785156 189.894531 " fill-opacity="1" fill-rule="nonzero"/><path fill="#ffffff" d="M 64.535156 106.625 C 48.292969 106.625 35.121094 119.777344 35.121094 136.003906 C 35.121094 152.230469 48.292969 165.382812 64.535156 165.382812 C 80.78125 165.382812 93.949219 152.230469 93.949219 136.003906 C 93.949219 123.585938 86.234375 112.964844 75.332031 108.667969 Z M 64.535156 106.625 " fill-opacity="1" fill-rule="nonzero"/><path fill="#243773" d="M 64.535156 166.9375 C 56.265625 166.9375 48.488281 163.71875 42.636719 157.875 C 36.789062 152.035156 33.566406 144.265625 33.566406 136.003906 C 33.566406 127.742188 36.789062 119.972656 42.636719 114.132812 C 48.488281 108.289062 56.265625 105.070312 64.535156 105.070312 C 65.394531 105.070312 66.09375 105.765625 66.09375 106.625 C 66.09375 107.484375 65.394531 108.179688 64.535156 108.179688 C 49.175781 108.179688 36.679688 120.660156 36.679688 136.003906 C 36.679688 151.347656 49.175781 163.828125 64.535156 163.828125 C 79.898438 163.828125 92.394531 151.347656 92.394531 136.003906 C 92.394531 124.5 85.472656 114.335938 74.761719 110.113281 C 73.960938 109.796875 73.570312 108.894531 73.882812 108.097656 C 74.199219 107.296875 75.101562 106.90625 75.902344 107.222656 C 81.617188 109.472656 86.496094 113.34375 90.007812 118.40625 C 93.605469 123.589844 95.507812 129.675781 95.507812 136.003906 C 95.507812 144.265625 92.285156 152.035156 86.433594 157.875 C 80.585938 163.71875 72.808594 166.9375 64.535156 166.9375 Z M 64.535156 166.9375 " fill-opacity="1" fill-rule="nonzero"/><path fill="#243773" d="M 64.535156 114.679688 C 63.679688 114.679688 62.980469 113.984375 62.980469 113.128906 L 62.980469 106.625 C 62.980469 105.765625 63.679688 105.070312 64.535156 105.070312 C 65.394531 105.070312 66.09375 105.765625 66.09375 106.625 L 66.09375 113.128906 C 66.09375 113.984375 65.394531 114.679688 64.535156 114.679688 Z M 64.535156 114.679688 " fill-opacity="1" fill-rule="nonzero"/><path fill="#243773" d="M 64.535156 166.9375 C 63.679688 166.9375 62.980469 166.242188 62.980469 165.382812 L 62.980469 158.878906 C 62.980469 158.023438 63.679688 157.328125 64.535156 157.328125 C 65.394531 157.328125 66.09375 158.023438 66.09375 158.878906 L 66.09375 165.382812 C 66.09375 166.242188 65.394531 166.9375 64.535156 166.9375 Z M 64.535156 166.9375 " fill-opacity="1" fill-rule="nonzero"/><path fill="#243773" d="M 41.632812 137.558594 L 35.121094 137.558594 C 34.265625 137.558594 33.566406 136.863281 33.566406 136.003906 C 33.566406 135.144531 34.265625 134.449219 35.121094 134.449219 L 41.632812 134.449219 C 42.492188 134.449219 43.1875 135.144531 43.1875 136.003906 C 43.1875 136.863281 42.492188 137.558594 41.632812 137.558594 Z M 41.632812 137.558594 " fill-opacity="1" fill-rule="nonzero"/><path fill="#243773" d="M 93.949219 137.558594 L 87.441406 137.558594 C 86.582031 137.558594 85.886719 136.863281 85.886719 136.003906 C 85.886719 135.144531 86.582031 134.449219 87.441406 134.449219 L 93.949219 134.449219 C 94.808594 134.449219 95.507812 135.144531 95.507812 136.003906 C 95.507812 136.863281 94.808594 137.558594 93.949219 137.558594 Z M 93.949219 137.558594 " fill-opacity="1" fill-rule="nonzero"/><path fill="#243773" d="M 79.898438 137.558594 L 64.535156 137.558594 C 63.679688 137.558594 62.980469 136.863281 62.980469 136.003906 L 62.980469 125.753906 C 62.980469 124.894531 63.679688 124.199219 64.535156 124.199219 C 65.394531 124.199219 66.09375 124.894531 66.09375 125.753906 L 66.09375 134.449219 L 79.898438 134.449219 C 80.757812 134.449219 81.453125 135.144531 81.453125 136.003906 C 81.453125 136.863281 80.757812 137.558594 79.898438 137.558594 Z M 79.898438 137.558594 " fill-opacity="1" fill-rule="nonzero"/><path fill="#243773" d="M 78.605469 121.914062 C 77.925781 121.914062 77.300781 121.464844 77.109375 120.777344 L 73.832031 109.085938 C 73.601562 108.257812 74.085938 107.402344 74.914062 107.171875 L 86.621094 103.898438 C 87.449219 103.667969 88.304688 104.148438 88.535156 104.976562 C 88.769531 105.800781 88.285156 106.660156 87.457031 106.890625 L 77.25 109.742188 L 80.105469 119.941406 C 80.335938 120.769531 79.851562 121.625 79.027344 121.855469 C 78.886719 121.894531 78.746094 121.914062 78.605469 121.914062 Z M 78.605469 121.914062 " fill-opacity="1" fill-rule="nonzero"/><path fill="#243773" d="M 241.730469 65.382812 C 240.871094 65.382812 240.175781 64.6875 240.175781 63.832031 L 240.175781 20.234375 C 240.175781 10.789062 232.480469 3.105469 223.027344 3.105469 L 217.585938 3.105469 C 208.128906 3.105469 200.4375 10.789062 200.4375 20.234375 C 200.4375 31.394531 191.347656 40.472656 180.175781 40.472656 L 176.710938 40.472656 C 175.855469 40.472656 175.15625 39.777344 175.15625 38.917969 C 175.15625 38.0625 175.855469 37.367188 176.710938 37.367188 L 180.175781 37.367188 C 189.632812 37.367188 197.328125 29.683594 197.328125 20.238281 C 197.328125 9.078125 206.414062 0 217.585938 0 L 223.027344 0 C 234.199219 0 243.285156 9.078125 243.285156 20.234375 L 243.285156 63.832031 C 243.285156 64.6875 242.589844 65.382812 241.730469 65.382812 Z M 241.730469 65.382812 " fill-opacity="1" fill-rule="nonzero"/><path fill="#bafffe" d="M 230.464844 32.691406 L 252.996094 32.691406 C 256.5625 32.691406 259.453125 35.578125 259.453125 39.140625 L 259.453125 74.28125 C 259.453125 77.84375 256.5625 80.730469 252.996094 80.730469 L 230.464844 80.730469 C 226.902344 80.730469 224.011719 77.84375 224.011719 74.28125 L 224.011719 39.140625 C 224.011719 35.578125 226.902344 32.691406 230.464844 32.691406 Z M 230.464844 32.691406 " fill-opacity="1" fill-rule="nonzero"/><path fill="#243773" d="M 252.996094 82.285156 L 230.464844 82.285156 C 226.050781 82.285156 222.457031 78.695312 222.457031 74.28125 L 222.457031 39.140625 C 222.457031 34.726562 226.050781 31.136719 230.464844 31.136719 L 252.996094 31.136719 C 257.414062 31.136719 261.007812 34.726562 261.007812 39.140625 L 261.007812 74.28125 C 261.007812 78.695312 257.414062 82.285156 252.996094 82.285156 Z M 230.464844 34.246094 C 227.765625 34.246094 225.566406 36.441406 225.566406 39.140625 L 225.566406 74.28125 C 225.566406 76.980469 227.765625 79.175781 230.464844 79.175781 L 252.996094 79.175781 C 255.699219 79.175781 257.894531 76.980469 257.894531 74.28125 L 257.894531 39.140625 C 257.894531 36.441406 255.699219 34.246094 252.996094 34.246094 Z M 230.464844 34.246094 " fill-opacity="1" fill-rule="nonzero"/><path fill="#243773" d="M 176.710938 25.820312 C 175.851562 25.820312 175.15625 25.125 175.15625 24.269531 L 175.15625 7.289062 C 175.15625 6.429688 175.851562 5.734375 176.710938 5.734375 C 177.570312 5.734375 178.269531 6.429688 178.269531 7.289062 L 178.269531 24.269531 C 178.269531 25.125 177.570312 25.820312 176.710938 25.820312 Z M 176.710938 25.820312 " fill-opacity="1" fill-rule="nonzero"/><path fill="#243773" d="M 162.042969 40.472656 L 145.042969 40.472656 C 144.183594 40.472656 143.488281 39.777344 143.488281 38.917969 C 143.488281 38.0625 144.183594 37.367188 145.042969 37.367188 L 162.042969 37.367188 C 162.902344 37.367188 163.597656 38.0625 163.597656 38.917969 C 163.597656 39.777344 162.902344 40.472656 162.042969 40.472656 Z M 162.042969 40.472656 " fill-opacity="1" fill-rule="nonzero"/><path fill="#243773" d="M 176.710938 72.105469 C 175.851562 72.105469 175.15625 71.410156 175.15625 70.550781 L 175.15625 53.570312 C 175.15625 52.714844 175.851562 52.019531 176.710938 52.019531 C 177.570312 52.019531 178.269531 52.714844 178.269531 53.570312 L 178.269531 70.550781 C 178.269531 71.410156 177.570312 72.105469 176.710938 72.105469 Z M 176.710938 72.105469 " fill-opacity="1" fill-rule="nonzero"/><path fill="#ffffff" d="M 301.40625 118.84375 C 301.40625 120.796875 301.3125 122.742188 301.121094 124.6875 C 300.929688 126.628906 300.640625 128.558594 300.261719 130.472656 C 299.878906 132.386719 299.40625 134.277344 298.839844 136.144531 C 298.269531 138.015625 297.613281 139.851562 296.863281 141.652344 C 296.117188 143.457031 295.28125 145.21875 294.359375 146.941406 C 293.441406 148.664062 292.4375 150.335938 291.351562 151.957031 C 290.265625 153.582031 289.101562 155.148438 287.863281 156.65625 C 286.621094 158.167969 285.3125 159.609375 283.929688 160.992188 C 282.546875 162.371094 281.101562 163.679688 279.589844 164.917969 C 278.078125 166.15625 276.511719 167.320312 274.886719 168.402344 C 273.261719 169.488281 271.585938 170.492188 269.863281 171.410156 C 268.140625 172.332031 266.375 173.164062 264.566406 173.914062 C 262.761719 174.660156 260.925781 175.316406 259.054688 175.882812 C 257.183594 176.449219 255.289062 176.921875 253.375 177.304688 C 251.457031 177.683594 249.527344 177.972656 247.582031 178.164062 C 245.636719 178.355469 243.6875 178.449219 241.730469 178.449219 C 239.777344 178.449219 237.828125 178.355469 235.882812 178.164062 C 233.9375 177.972656 232.003906 177.683594 230.089844 177.304688 C 228.171875 176.921875 226.277344 176.449219 224.40625 175.882812 C 222.539062 175.316406 220.699219 174.660156 218.894531 173.914062 C 217.089844 173.164062 215.324219 172.332031 213.601562 171.410156 C 211.875 170.492188 210.203125 169.488281 208.578125 168.402344 C 206.953125 167.320312 205.382812 166.15625 203.871094 164.917969 C 202.363281 163.679688 200.914062 162.371094 199.535156 160.992188 C 198.152344 159.609375 196.839844 158.167969 195.601562 156.65625 C 194.359375 155.148438 193.199219 153.582031 192.113281 151.957031 C 191.027344 150.335938 190.023438 148.664062 189.101562 146.941406 C 188.179688 145.21875 187.34375 143.457031 186.597656 141.652344 C 185.847656 139.851562 185.191406 138.015625 184.625 136.144531 C 184.058594 134.277344 183.582031 132.386719 183.203125 130.472656 C 182.820312 128.558594 182.535156 126.628906 182.34375 124.6875 C 182.152344 122.742188 182.054688 120.796875 182.054688 118.84375 C 182.054688 116.890625 182.152344 114.945312 182.34375 113 C 182.535156 111.058594 182.820312 109.128906 183.203125 107.214844 C 183.582031 105.300781 184.058594 103.410156 184.625 101.539062 C 185.191406 99.671875 185.847656 97.835938 186.597656 96.035156 C 187.34375 94.230469 188.179688 92.46875 189.101562 90.746094 C 190.023438 89.023438 191.027344 87.351562 192.113281 85.726562 C 193.199219 84.105469 194.359375 82.539062 195.601562 81.03125 C 196.839844 79.519531 198.152344 78.078125 199.535156 76.695312 C 200.914062 75.316406 202.363281 74.007812 203.871094 72.769531 C 205.382812 71.527344 206.953125 70.367188 208.578125 69.28125 C 210.203125 68.199219 211.875 67.195312 213.601562 66.277344 C 215.324219 65.355469 217.089844 64.523438 218.894531 63.773438 C 220.699219 63.027344 222.539062 62.371094 224.40625 61.804688 C 226.277344 61.238281 228.171875 60.765625 230.089844 60.382812 C 232.003906 60.003906 233.9375 59.714844 235.882812 59.523438 C 237.828125 59.332031 239.777344 59.238281 241.730469 59.238281 C 243.6875 59.238281 245.636719 59.332031 247.582031 59.523438 C 249.527344 59.714844 251.457031 60.003906 253.375 60.382812 C 255.289062 60.765625 257.183594 61.238281 259.054688 61.804688 C 260.925781 62.371094 262.761719 63.027344 264.566406 63.773438 C 266.375 64.523438 268.140625 65.355469 269.863281 66.277344 C 271.585938 67.195312 273.261719 68.199219 274.886719 69.28125 C 276.511719 70.367188 278.078125 71.527344 279.589844 72.769531 C 281.101562 74.007812 282.546875 75.316406 283.929688 76.695312 C 285.3125 78.078125 286.621094 79.519531 287.863281 81.03125 C 289.101562 82.539062 290.265625 84.105469 291.351562 85.726562 C 292.4375 87.351562 293.441406 89.023438 294.359375 90.746094 C 295.28125 92.46875 296.117188 94.230469 296.863281 96.035156 C 297.613281 97.835938 298.269531 99.671875 298.839844 101.539062 C 299.40625 103.410156 299.878906 105.300781 300.261719 107.214844 C 300.640625 109.128906 300.929688 111.058594 301.121094 113 C 301.3125 114.945312 301.40625 116.890625 301.40625 118.84375 Z M 301.40625 118.84375 " fill-opacity="1" fill-rule="nonzero"/><path fill="#243773" d="M 241.730469 180.003906 C 233.464844 180.003906 225.445312 178.386719 217.894531 175.195312 C 210.605469 172.117188 204.054688 167.707031 198.433594 162.089844 C 192.8125 156.472656 188.394531 149.933594 185.3125 142.648438 C 182.117188 135.109375 180.5 127.097656 180.5 118.84375 C 180.5 110.585938 182.117188 102.578125 185.3125 95.039062 C 188.394531 87.753906 192.8125 81.214844 198.433594 75.597656 C 204.058594 69.980469 210.605469 65.570312 217.894531 62.492188 C 225.445312 59.300781 233.464844 57.683594 241.730469 57.683594 C 249.996094 57.683594 258.015625 59.300781 265.566406 62.492188 C 272.859375 65.570312 279.40625 69.980469 285.027344 75.597656 C 290.652344 81.214844 295.066406 87.753906 298.148438 95.039062 C 301.34375 102.578125 302.964844 110.585938 302.964844 118.84375 C 302.964844 127.097656 301.34375 135.109375 298.148438 142.648438 C 295.066406 149.933594 290.652344 156.472656 285.027344 162.089844 C 279.40625 167.707031 272.859375 172.117188 265.566406 175.195312 C 258.015625 178.386719 249.996094 180.003906 241.730469 180.003906 Z M 241.730469 60.792969 C 209.683594 60.792969 183.609375 86.832031 183.609375 118.84375 C 183.609375 150.855469 209.683594 176.894531 241.730469 176.894531 C 273.777344 176.894531 299.851562 150.855469 299.851562 118.84375 C 299.851562 86.832031 273.777344 60.792969 241.730469 60.792969 Z M 241.730469 60.792969 " fill-opacity="1" fill-rule="nonzero"/><path fill="#243773" d="M 210.601562 85.359375 C 210.171875 85.359375 209.746094 85.183594 209.4375 84.835938 C 208.867188 84.195312 208.925781 83.214844 209.566406 82.644531 C 211.804688 80.65625 214.238281 78.867188 216.800781 77.328125 C 217.535156 76.886719 218.492188 77.125 218.933594 77.859375 C 219.378906 78.59375 219.140625 79.546875 218.402344 79.992188 C 216.007812 81.433594 213.730469 83.105469 211.632812 84.964844 C 211.335938 85.230469 210.96875 85.359375 210.601562 85.359375 Z M 210.601562 85.359375 " fill-opacity="1" fill-rule="nonzero"/><path fill="#243773" d="M 201.023438 143.683594 C 200.484375 143.683594 199.960938 143.402344 199.671875 142.902344 C 195.472656 135.609375 193.253906 127.289062 193.253906 118.84375 C 193.253906 109.371094 196.003906 100.1875 201.210938 92.289062 C 201.679688 91.574219 202.644531 91.375 203.363281 91.847656 C 204.082031 92.316406 204.28125 93.28125 203.808594 94 C 198.9375 101.386719 196.363281 109.980469 196.363281 118.84375 C 196.363281 126.746094 198.441406 134.53125 202.371094 141.355469 C 202.796875 142.097656 202.539062 143.050781 201.796875 143.476562 C 201.550781 143.617188 201.285156 143.683594 201.023438 143.683594 Z M 201.023438 143.683594 " fill-opacity="1" fill-rule="nonzero"/><path fill="#ffe98a" d="M 241.730469 71.976562 C 267.472656 71.976562 288.65625 93.132812 288.65625 118.84375 C 288.65625 144.554688 267.472656 165.710938 241.730469 165.710938 C 229.292969 165.710938 217.347656 160.769531 208.550781 151.984375 L 241.730469 118.84375 Z M 241.730469 71.976562 " fill-opacity="1" fill-rule="nonzero"/><path fill="#243773" d="M 241.730469 167.265625 C 235.335938 167.265625 229.09375 166.023438 223.179688 163.578125 C 217.265625 161.132812 211.976562 157.601562 207.453125 153.082031 C 206.84375 152.476562 206.84375 151.492188 207.453125 150.886719 L 240.175781 118.199219 L 240.175781 71.976562 C 240.175781 71.117188 240.871094 70.421875 241.730469 70.421875 C 248.230469 70.421875 254.558594 71.710938 260.53125 74.253906 C 266.296875 76.707031 271.480469 80.210938 275.945312 84.667969 C 280.410156 89.128906 283.917969 94.308594 286.375 100.066406 C 288.917969 106.035156 290.210938 112.351562 290.210938 118.84375 C 290.210938 125.335938 288.917969 131.652344 286.375 137.621094 C 283.917969 143.378906 280.410156 148.558594 275.945312 153.015625 C 271.480469 157.476562 266.296875 160.980469 260.53125 163.433594 C 254.558594 165.976562 248.230469 167.265625 241.730469 167.265625 Z M 210.769531 151.964844 C 219.113281 159.730469 230.308594 164.15625 241.730469 164.15625 C 266.746094 164.15625 287.097656 143.828125 287.097656 118.84375 C 287.097656 94.378906 267.585938 74.378906 243.285156 73.554688 L 243.285156 118.84375 C 243.285156 119.253906 243.125 119.652344 242.832031 119.941406 Z M 241.730469 118.84375 L 241.734375 118.84375 Z M 241.730469 118.84375 " fill-opacity="1" fill-rule="nonzero"/><path fill="#243773" d="M 241.734375 167.257812 C 240.875 167.257812 240.179688 166.5625 240.179688 165.707031 L 240.179688 154.226562 C 240.179688 153.367188 240.875 152.671875 241.734375 152.671875 C 242.59375 152.671875 243.289062 153.367188 243.289062 154.226562 L 243.289062 165.707031 C 243.289062 166.5625 242.59375 167.257812 241.734375 167.257812 Z M 241.734375 167.257812 " fill-opacity="1" fill-rule="nonzero"/><path fill="#243773" d="M 288.652344 120.394531 L 277.160156 120.394531 C 276.300781 120.394531 275.605469 119.699219 275.605469 118.84375 C 275.605469 117.984375 276.300781 117.289062 277.160156 117.289062 L 288.652344 117.289062 C 289.511719 117.289062 290.207031 117.984375 290.207031 118.84375 C 290.207031 119.699219 289.511719 120.394531 288.652344 120.394531 Z M 288.652344 120.394531 " fill-opacity="1" fill-rule="nonzero"/><path fill="#ffffff" d="M 268.605469 340.097656 L 262.578125 340.097656 C 249.992188 335.265625 238.421875 327.550781 228.109375 318.921875 L 206.804688 301.207031 C 202.683594 297.117188 202.898438 290.554688 207.015625 286.46875 C 211.136719 282.378906 217.757812 282.160156 221.878906 286.25 L 212.835938 277.273438 L 213.078125 277.90625 C 208.726562 273.589844 208.726562 266.585938 213.078125 262.265625 C 217.433594 257.945312 225.0625 257.996094 229.414062 262.316406 L 222.503906 255.460938 C 218.304688 251.292969 218.304688 244.503906 222.503906 240.335938 C 227.019531 235.859375 234.40625 235.859375 238.921875 240.335938 L 241.472656 242.871094 L 203.757812 205.570312 C 199.757812 201.601562 199.757812 195.167969 203.757812 191.203125 C 207.753906 187.234375 214.238281 187.234375 218.234375 191.203125 L 283.679688 251.84375 C 283.679688 251.84375 288.941406 224.527344 288.945312 224.425781 C 289.554688 215.175781 302.597656 213.328125 306.148438 221.898438 L 309.304688 274.28125 L 315.335938 304.199219 Z M 268.605469 340.097656 " fill-opacity="1" fill-rule="nonzero"/><path fill="#243773" d="M 268.605469 341.648438 L 262.578125 341.648438 C 262.386719 341.648438 262.195312 341.613281 262.019531 341.546875 C 250.621094 337.171875 238.875 329.960938 227.109375 320.109375 L 205.808594 302.398438 C 205.773438 302.371094 205.742188 302.339844 205.707031 302.308594 C 203.488281 300.105469 202.265625 297.167969 202.265625 294.042969 C 202.265625 290.785156 203.5625 287.703125 205.921875 285.363281 C 208.210938 283.089844 211.230469 281.804688 214.417969 281.738281 C 214.65625 281.734375 214.894531 281.734375 215.132812 281.746094 L 212.808594 279.4375 C 212.503906 279.382812 212.214844 279.238281 211.984375 279.007812 C 209.582031 276.628906 208.257812 273.457031 208.257812 270.085938 C 208.257812 266.714844 209.582031 263.546875 211.984375 261.164062 C 214.332031 258.832031 217.6875 257.496094 221.195312 257.496094 C 221.214844 257.496094 221.234375 257.496094 221.253906 257.496094 C 221.640625 257.5 222.023438 257.515625 222.40625 257.550781 L 221.410156 256.5625 C 219.082031 254.25 217.800781 251.175781 217.800781 247.898438 C 217.800781 244.621094 219.082031 241.542969 221.410156 239.234375 C 224.242188 236.421875 228.058594 235.164062 231.769531 235.457031 L 202.664062 206.671875 C 200.433594 204.457031 199.203125 201.515625 199.203125 198.386719 C 199.203125 195.253906 200.433594 192.3125 202.660156 190.097656 C 207.25 185.546875 214.714844 185.539062 219.3125 190.078125 L 282.683594 248.800781 C 284.480469 239.453125 287.1875 225.382812 287.402344 224.234375 C 287.582031 221.757812 288.558594 219.570312 290.21875 217.894531 C 291.730469 216.378906 293.78125 215.339844 296.003906 214.976562 C 300.179688 214.289062 305.378906 215.976562 307.585938 221.304688 C 307.652344 221.464844 307.691406 221.632812 307.703125 221.804688 L 310.851562 274.082031 L 316.859375 303.890625 C 317.027344 304.730469 316.484375 305.550781 315.640625 305.71875 C 314.800781 305.890625 313.980469 305.34375 313.808594 304.503906 L 307.78125 274.589844 C 307.765625 274.519531 307.757812 274.445312 307.753906 274.375 L 304.613281 222.261719 C 302.902344 218.449219 299.203125 217.597656 296.507812 218.042969 C 293.90625 218.46875 290.769531 220.425781 290.5 224.527344 C 290.488281 224.660156 290.484375 224.726562 285.207031 252.136719 C 285.101562 252.691406 284.703125 253.144531 284.164062 253.320312 C 283.625 253.496094 283.035156 253.367188 282.621094 252.984375 L 217.179688 192.339844 C 217.164062 192.328125 217.152344 192.316406 217.140625 192.304688 C 213.753906 188.941406 208.242188 188.941406 204.855469 192.304688 C 203.214844 193.929688 202.316406 196.089844 202.316406 198.386719 C 202.316406 200.683594 203.214844 202.84375 204.855469 204.46875 L 239.710938 238.941406 C 239.816406 239.039062 239.917969 239.136719 240.019531 239.234375 L 242.570312 241.769531 C 243.179688 242.371094 243.183594 243.355469 242.578125 243.964844 C 241.972656 244.574219 240.988281 244.578125 240.378906 243.972656 L 240.375 243.96875 L 237.558594 241.183594 C 233.621094 237.550781 227.433594 237.636719 223.601562 241.4375 C 221.867188 243.160156 220.910156 245.453125 220.910156 247.898438 C 220.910156 250.339844 221.867188 252.632812 223.601562 254.355469 L 230.511719 261.214844 C 231.121094 261.816406 231.125 262.800781 230.519531 263.410156 C 229.914062 264.019531 228.929688 264.023438 228.320312 263.417969 C 224.539062 259.667969 217.929688 259.644531 214.175781 263.367188 C 212.367188 265.164062 211.371094 267.550781 211.371094 270.085938 C 211.371094 272.167969 212.042969 274.148438 213.28125 275.785156 C 213.519531 275.855469 213.742188 275.988281 213.929688 276.171875 L 222.972656 285.144531 C 223.582031 285.75 223.585938 286.734375 222.980469 287.34375 C 222.375 287.953125 221.390625 287.953125 220.78125 287.351562 L 220.769531 287.339844 C 217.335938 283.945312 211.664062 284.046875 208.113281 287.570312 C 206.347656 289.320312 205.375 291.621094 205.375 294.042969 C 205.375 296.3125 206.253906 298.445312 207.855469 300.058594 L 229.101562 317.726562 C 240.519531 327.28125 251.875 334.28125 262.867188 338.542969 L 268.605469 338.542969 C 269.464844 338.542969 270.160156 339.238281 270.160156 340.097656 C 270.160156 340.953125 269.464844 341.648438 268.605469 341.648438 Z M 287.398438 224.285156 C 287.394531 224.304688 287.394531 224.316406 287.394531 224.324219 C 287.394531 224.308594 287.398438 224.296875 287.398438 224.285156 Z M 287.398438 224.285156 " fill-opacity="1" fill-rule="nonzero"/><path fill="#ffe98a" d="M 336.175781 322.9375 C 335.285156 374.996094 257.800781 374.984375 256.917969 322.933594 C 257.808594 270.878906 335.292969 270.886719 336.175781 322.9375 Z M 336.175781 322.9375 " fill-opacity="1" fill-rule="nonzero"/><path fill="#243773" d="M 296.546875 363.53125 C 296.546875 363.53125 296.542969 363.53125 296.542969 363.53125 C 285.917969 363.53125 275.964844 359.925781 268.523438 353.382812 C 260.125 346 255.574219 335.480469 255.363281 322.960938 C 255.363281 322.945312 255.363281 322.925781 255.363281 322.90625 C 255.578125 310.386719 260.128906 299.867188 268.527344 292.488281 C 275.972656 285.945312 285.921875 282.34375 296.546875 282.34375 C 296.546875 282.34375 296.550781 282.34375 296.550781 282.34375 C 307.175781 282.34375 317.128906 285.949219 324.570312 292.492188 C 332.96875 299.871094 337.519531 310.390625 337.730469 322.910156 C 337.730469 322.929688 337.730469 322.945312 337.730469 322.964844 C 337.515625 335.484375 332.964844 346.003906 324.566406 353.382812 C 317.121094 359.925781 307.171875 363.53125 296.546875 363.53125 Z M 258.472656 322.933594 C 258.925781 348.6875 278.519531 360.421875 296.542969 360.421875 C 314.566406 360.421875 334.164062 348.691406 334.621094 322.9375 C 334.167969 297.183594 314.574219 285.449219 296.550781 285.449219 C 278.527344 285.449219 258.929688 297.179688 258.472656 322.933594 Z M 258.472656 322.933594 " fill-opacity="1" fill-rule="nonzero"/><path fill="#243773" d="M 301.890625 340.921875 L 291.203125 340.921875 C 287.035156 340.921875 283.640625 337.535156 283.640625 333.371094 L 283.640625 329.949219 C 283.640625 329.089844 284.339844 328.394531 285.199219 328.394531 C 286.054688 328.394531 286.753906 329.089844 286.753906 329.949219 L 286.753906 333.371094 C 286.753906 335.824219 288.75 337.816406 291.203125 337.816406 L 301.890625 337.816406 C 304.34375 337.816406 306.339844 335.824219 306.339844 333.371094 L 306.339844 328.441406 C 306.339844 325.992188 304.34375 323.996094 301.890625 323.996094 L 291.203125 323.996094 C 287.035156 323.996094 283.640625 320.609375 283.640625 316.445312 L 283.640625 311.515625 C 283.640625 307.351562 287.035156 303.964844 291.203125 303.964844 L 301.890625 303.964844 C 306.058594 303.964844 309.453125 307.351562 309.453125 311.515625 L 309.453125 314.832031 C 309.453125 315.691406 308.753906 316.386719 307.894531 316.386719 C 307.039062 316.386719 306.339844 315.691406 306.339844 314.832031 L 306.339844 311.515625 C 306.339844 309.066406 304.34375 307.070312 301.890625 307.070312 L 291.203125 307.070312 C 288.75 307.070312 286.753906 309.066406 286.753906 311.515625 L 286.753906 316.445312 C 286.753906 318.898438 288.75 320.890625 291.203125 320.890625 L 301.890625 320.890625 C 306.058594 320.890625 309.453125 324.277344 309.453125 328.441406 L 309.453125 333.371094 C 309.453125 337.535156 306.058594 340.921875 301.890625 340.921875 Z M 301.890625 340.921875 " fill-opacity="1" fill-rule="nonzero"/><path fill="#243773" d="M 296.546875 348.917969 C 295.6875 348.917969 294.992188 348.222656 294.992188 347.363281 L 294.992188 339.371094 C 294.992188 338.511719 295.6875 337.816406 296.546875 337.816406 C 297.40625 337.816406 298.101562 338.511719 298.101562 339.371094 L 298.101562 347.363281 C 298.101562 348.222656 297.40625 348.917969 296.546875 348.917969 Z M 296.546875 348.917969 " fill-opacity="1" fill-rule="nonzero"/><path fill="#243773" d="M 296.546875 307.070312 C 295.6875 307.070312 294.992188 306.375 294.992188 305.515625 L 294.992188 297.523438 C 294.992188 296.667969 295.6875 295.972656 296.546875 295.972656 C 297.40625 295.972656 298.101562 296.667969 298.101562 297.523438 L 298.101562 305.515625 C 298.101562 306.375 297.40625 307.070312 296.546875 307.070312 Z M 296.546875 307.070312 " fill-opacity="1" fill-rule="nonzero"/></svg>